<?xml version="1.0" encoding="UTF-8"?><!DOCTYPE svg PUBLIC "-//W3C//DTD SVG 1.1//EN" "http://www.w3.org/Graphics/SVG/1.1/DTD/svg11.dtd">
<svg xmlns="http://www.w3.org/2000/svg">
	<symbol id="icon-bitcoin" viewBox="0 0 512 512">
		<path d="M361.971 239.062c36.665-26.262 51.562-119.057-67.002-131.281L294.968 50H246.95l.001 56.086h-20.357V50h-47.985l-.015 56.086h-76.631l.011 51.949 35.606-.021c11.648.003 13.862 5.488 13.862 12.654v164.086c0 9.123-4.417 13.588-14.278 13.588h-26.879l-9.207 55.616h77.523l.017 58.042h47.976v-58.042h20.36L246.936 462h48.021v-58.231c145.26-9.969 137.494-140.338 67.014-164.707zm-135.378-12.347v-66.021c34.72 0 79.767-1.01 79.772 33.036-.009 32.749-46.269 32.985-79.772 32.985zm0 48.203c38.505-.763 97.454-1.812 97.451 36.888.016 37.604-60.552 36.567-97.451 36.567v-73.455z"/>
	</symbol>
	<symbol id="icon-channel" viewBox="0 0 24 24">
		<path d="M0 0h24v24H0z" fill="none"/>
		<path d="M8 8.5v7l4.5-3.5zm9 2V7c0-.55-.45-1-1-1H4c-.55 0-1 .45-1 1v10c0 .55.45 1 1 1h12c.55 0 1-.45 1-1v-3.5l4 4v-11z" fill-rule="evenodd"/>
	</symbol>
	<symbol id="icon-check" viewBox="0 0 512 512">
		<path d="M398.218 92.985l-198.489 198.49-85.975-85.999L50 269.242l149.733 149.773L462 156.726z"/>
	</symbol>
	<symbol id="icon-cheer-1" viewBox="0 0 1000 1000">
		<path d="M291 659l208.6-322.4L709.2 659z"/>
	</symbol>
	<symbol id="icon-cheer-100" viewBox="0 0 1000 1000">
		<path d="M498.1 220L218 603.5 498.1 830 782 603.5z"/>
	</symbol>
	<symbol id="icon-cheer-1000" viewBox="0 0 1000 1000">
		<path d="M500 162l330 288-170 322H340L170 450z"/>
	</symbol>
	<symbol id="icon-cheer-10000" viewBox="0 0 1000 1000">
		<path d="M500 344L305 175v213.6L147.1 500 305 611.4V825l195-167.1L695 825V611.4L852.9 500 695 388.6V175z"/>
	</symbol>
	<symbol id="icon-cheer-100000" viewBox="0 0 1000 1000">
		<path d="M714.6 606.8L890 500 714.2 392.3l62.5-169-169 62.5L500 110 394.5 285.9l-169.4-62.6 61.8 170.3L110 500l176.3 106.4-61.2 168.5 168.5-61.2L500 890l107.7-176.5 169 61.4z"/>
	</symbol>
	<symbol id="icon-cheer-5000" viewBox="0 0 1000 1000">
		<path d="M225 385.4l275-220 275 220v229.2l-275 220-275-220z"/>
	</symbol>
	<symbol id="icon-chevron-down" viewBox="0 0 512 512">
		<path d="M462 181.064l-206 205.02-206-205.02 54.886-55.148L256 276.311l151.113-150.395z"/>
	</symbol>
	<symbol id="icon-chevron-left" viewBox="0 0 512 512">
		<path d="M225.689 256l150.395 151.113L320.936 462l-205.02-206 205.02-206 55.148 54.886z"/>
	</symbol>
	<symbol id="icon-chevron-right" viewBox="0 0 512 512">
		<path d="M135.916 104.886L191.064 50l205.02 206-205.02 206-55.148-54.887L286.311 256z"/>
	</symbol>
	<symbol id="icon-chevron-up" viewBox="0 0 512 512">
		<path d="M256 125.916L50 330.936l54.886 55.148L256 235.689l151.113 150.395L462 330.936z"/>
	</symbol>
	<symbol id="icon-chrome" viewBox="0 0 512 512">
		<path d="M99.744 121.842c95.763-111.391 273.325-89.403 339.705 40.713-46.727.017-119.898-.014-159.528 0-28.743.01-47.301-.643-67.398 9.931-23.627 12.43-41.454 35.471-47.677 62.534L99.744 121.842zm87.722 134.15c0 37.752 30.713 68.465 68.465 68.465 37.751 0 68.464-30.713 68.464-68.465 0-37.751-30.713-68.465-68.464-68.465-37.752 0-68.465 30.714-68.465 68.465zm95.036 89.616c-38.428 11.414-83.398-1.244-108.031-43.74-18.803-32.438-68.483-118.938-91.064-158.27-79.086 121.147-10.925 286.239 132.65 314.417l66.445-112.407zm37.027-158.081c32.006 29.752 38.979 77.928 17.299 115.283-16.334 28.144-68.466 116.083-93.732 158.666C391.023 470.59 498.86 325.69 450.151 187.527H319.529z"/>
	</symbol>
	<symbol id="icon-close" viewBox="0 0 512 512">
		<path d="M438.393 374.595L319.757 255.977l118.621-118.629-63.783-63.741-118.6 118.618-118.62-118.603-63.768 63.73 118.639 118.631L73.622 374.625l63.73 63.768 118.65-118.659 118.65 118.644z"/>
	</symbol>
	<symbol id="icon-cogwheel" viewBox="0 0 512 512">
		<path d="M462 283.742v-55.485l-29.981-10.662a42.953 42.953 0 0 1-25.274-24.001l-.006-.013a42.963 42.963 0 0 1 .889-34.903l13.653-28.724-39.234-39.234-28.72 13.652a42.995 42.995 0 0 1-34.908.889l-.014-.005a42.922 42.922 0 0 1-24-25.273L283.741 50h-55.484l-10.662 29.981a42.956 42.956 0 0 1-24.001 25.274l-.014.005a42.964 42.964 0 0 1-34.905-.889l-28.723-13.653-39.234 39.234 13.653 28.721a43.003 43.003 0 0 1 .889 34.91l-.006.013a42.92 42.92 0 0 1-25.271 23.998L50 228.257v55.485l29.98 10.661a42.957 42.957 0 0 1 25.274 24l.005.014a42.966 42.966 0 0 1-.888 34.906l-13.654 28.723 39.234 39.234 28.721-13.652a42.997 42.997 0 0 1 34.909-.889l.014.006a42.92 42.92 0 0 1 23.998 25.271L228.257 462h55.484l10.595-29.79a43.407 43.407 0 0 1 24.216-25.525l.014-.006a42.51 42.51 0 0 1 34.578.863l28.902 13.738 39.234-39.234-13.66-28.737a42.957 42.957 0 0 1-.886-34.877l.006-.014a42.966 42.966 0 0 1 25.297-24.021L462 283.742zm-206 47.804c-41.724 0-75.548-33.823-75.548-75.546s33.824-75.547 75.548-75.547c41.723 0 75.546 33.824 75.546 75.547S297.723 331.546 256 331.546z"/>
	</symbol>
	<symbol id="icon-envelope" viewBox="0 0 512 512">
		<path d="M50.423 103.407v305.186h411.153V103.407H50.423zm362.505 40L255.593 273.436 98.691 143.407h314.237zm8.648 225.186H90.423V191.085L255.56 327.898l166.016-137.19v177.885z"/>
	</symbol>
	<symbol id="icon-forbidden" viewBox="0 0 512 512">
		<path d="M256 50C142.229 50 50 142.229 50 256s92.229 206 206 206 206-92.229 206-206S369.771 50 256 50zM149.934 362.066c-51.711-51.713-57.423-131.091-19.101-188.806L338.74 381.166c-57.649 38.281-137.032 32.674-188.806-19.1zm231.232-23.326L173.26 130.833c57.648-38.278 137.029-32.675 188.806 19.101 51.709 51.709 57.424 131.093 19.1 188.806z"/>
	</symbol>
	<symbol id="icon-gift" viewBox="0 0 512 512">
		<path d="M231 462H68.125V257.669H231V462zm0-301.331H50v67h181v-67zM281 462h162.875V257.669H281V462zm0-301.331v67h181v-67H281zm16.884-45h37.032c27.667 0 26.667-35.669 5.426-35.669-16.384 0-29.071 15.335-42.458 35.669zM349.342 50c63.574 0 62.908 90.669-.426 90.669H257.75C270.423 113.044 295.916 50 349.342 50zM175.158 80c-21.241 0-22.241 35.669 5.426 35.669h37.032C204.229 95.335 191.542 80 175.158 80zm-9-30c53.426 0 78.919 63.044 91.592 90.669h-91.166c-63.334 0-64-90.669-.426-90.669z"/>
	</symbol>
	<symbol id="icon-github" viewBox="0 0 512 512">
		<path d="M461.633 250.645l.367-3.819c-22.896-2.221-45.667-2.419-67.79-.73 3.557-11.347 5.43-24.164 5.295-38.739-.292-30.965-10.616-55.081-26.843-75.096 3.116-18.852.769-37.702-5.111-56.561-23.187 1.898-44.053 9.493-62.634 22.686-34.725-7.044-69.447-7.493-104.172 0-21.673-14.627-42.956-21.802-63.909-22.686-6.21 20.765-7.169 41.233-1.917 61.357-18.28 19.397-25.268 42.944-24.925 69.019.196 14.927 2.496 28.209 6.738 39.952a394.06 394.06 0 0 0-66.732.798l.367 3.819c22.947-2.228 45.76-2.411 67.919-.678.814 1.974 1.633 3.939 2.567 5.815-24.009-.633-45.618 1.453-65.854 6.43l.914 3.723c20.538-5.048 42.54-7.081 67.107-6.254 16.246 28.864 47.52 45.824 93.063 51.205-10.581 8.594-16.269 18.731-17.735 30.201h-24.121c-32.394 0-41.226-41.304-74.779-37.229C132 320 125.5 371.599 177.587 371.599h21.881v47.296c.234 7.643-3.093 12.754-8.469 16.297 18.654 1.884 32.674-7.43 32.674-18.854V353.82l5.833-6v72.992c.245 7.265-3.284 11.392-7.031 15.339 16.434.654 31.892-2.629 32.592-16.615v-69.857s5.756-3.599 5.756 0v66.58c.169 11.8 10.361 21.367 31.953 19.893-5.776-4.65-7.549-9.35-7.549-16.15v-72.181s5.95-.306 5.95 6v60.881c0 13.55 16.267 19.14 34.829 18.615-6.081-4.558-10.196-9.991-10.223-17.256v-73.217c-.629-10.762-5.003-20.906-13.582-30.358 41.63-6.392 71.637-23.011 86.578-52.796 24.647-.847 46.715 1.183 67.307 6.246l.914-3.723c-20.394-5.014-42.181-7.096-66.416-6.415.839-1.891 1.67-3.789 2.389-5.785 22.39-1.798 45.458-1.622 68.66.632zM114 310.023c-1.023 0-1.853-.588-1.853-1.313 0-.728.83-1.315 1.853-1.315 1.024 0 1.854.588 1.854 1.315 0 .726-.83 1.313-1.854 1.313zm5.833 3.98c-1.137 0-2.06-.653-2.06-1.46s.923-1.462 2.06-1.462 2.059.655 2.059 1.462-.922 1.46-2.059 1.46zm5.917 5.169c-1.333 0-2.415-.766-2.415-1.712s1.082-1.714 2.415-1.714 2.416.768 2.416 1.714-1.083 1.712-2.416 1.712zm5.75 6.207c-1.56 0-2.825-.896-2.825-2.003s1.265-2.005 2.825-2.005 2.825.898 2.825 2.005-1.265 2.003-2.825 2.003zm6.333 7.015c-1.733 0-3.139-.996-3.139-2.226s1.406-2.228 3.139-2.228 3.139.998 3.139 2.228-1.406 2.226-3.139 2.226zm7.334 7.123c-1.926 0-3.488-1.107-3.488-2.474s1.562-2.476 3.488-2.476c1.925 0 3.487 1.109 3.487 2.476s-1.562 2.474-3.487 2.474zm9.916 6.774c-2.14 0-3.875-1.231-3.875-2.749 0-1.519 1.735-2.751 3.875-2.751s3.875 1.232 3.875 2.751c0 1.518-1.735 2.749-3.875 2.749zm12.292 3.625c-2.14 0-3.875-1.231-3.875-2.749 0-1.519 1.735-2.751 3.875-2.751s3.875 1.232 3.875 2.751c0 1.518-1.735 2.749-3.875 2.749zm12.958.417c-2.14 0-3.875-1.231-3.875-2.749 0-1.519 1.735-2.751 3.875-2.751s3.875 1.232 3.875 2.751c0 1.518-1.735 2.749-3.875 2.749zm12.792.25c-2.14 0-3.875-1.231-3.875-2.749 0-1.519 1.735-2.751 3.875-2.751s3.875 1.232 3.875 2.751c0 1.518-1.735 2.749-3.875 2.749z"/>
	</symbol>
	<symbol id="icon-help" viewBox="0 0 512 512">
		<path d="M259.462 462c-24.864 0-45.03-20.166-45.03-45.039 0-24.86 20.166-45.02 45.03-45.02 24.87 0 45.029 20.159 45.029 45.02 0 24.873-20.159 45.039-45.029 45.039zm35.403-133.1v8.1h-74.229v-8.1c0-22.922 3.344-52.326 29.956-77.89 26.613-25.567 59.87-46.687 59.87-78.625 0-35.309-24.503-53.985-55.399-53.985-51.483 0-54.846 53.393-56.115 65.149H126.75C128.673 127.874 152.206 50 255.494 50c89.513 0 129.756 59.949 129.756 116.166 0 89.48-90.385 105.023-90.385 162.734z"/>
	</symbol>
	<symbol id="icon-key" viewBox="0 0 512 512">
		<path stroke="#000" stroke-miterlimit="10" d="M286.529 325.486L241.215 370.8h-43.873l.002 43.872-45.746-.001v41.345l-100.004-.001 150.078-150.076c-4.578-4.686-10.061-11.391-13.691-17.423L50 426.498v-40.939l145.736-145.736c16.438 39.173 48.977 70.882 90.793 85.663zM425.646 92.339c48.473 48.473 48.471 127.064-.002 175.535-48.477 48.476-127.061 48.476-175.537.001-48.473-48.472-48.475-127.062 0-175.537 48.473-48.473 127.065-48.473 175.539.001zm-24.916 24.826c-12.023-12.021-31.516-12.021-43.537 0-12.021 12.022-12.021 31.517 0 43.538s31.514 12.021 43.537-.001c12.024-12.022 12.02-31.514 0-43.537z"/>
	</symbol>
	<symbol id="icon-list" viewBox="0 0 512 512">
		<path d="M123.027 413.5H50v-65h73.027v65zm0-190H50v65h73.027v-65zm0-125H50v65h73.027v-65zm45 0v65H462v-65H168.027zm0 190H462v-65H168.027v65zm0 125H462v-65H168.027v65z"/>
	</symbol>
	<symbol id="icon-magnifier" viewBox="0 0 512 512">
		<path d="M460.355 421.59L353.844 315.078c20.041-27.553 31.885-61.437 31.885-98.037C385.729 124.934 310.793 50 218.686 50 126.58 50 51.645 124.934 51.645 217.041c0 92.106 74.936 167.041 167.041 167.041 34.912 0 67.352-10.773 94.184-29.158L419.945 462l40.41-40.41zM100.631 217.041c0-65.096 52.959-118.056 118.055-118.056 65.098 0 118.057 52.959 118.057 118.056 0 65.096-52.959 118.056-118.057 118.056-65.096 0-118.055-52.96-118.055-118.056z"/>
	</symbol>
	<symbol id="icon-moon" viewBox="0 0 512 512">
		<path d="M248.082 263.932c-31.52-31.542-39.979-77.104-26.02-116.542-15.25 5.395-29.668 13.833-41.854 26.02-43.751 43.75-43.751 114.667 0 158.395 43.729 43.73 114.625 43.752 158.374 0 12.229-12.186 20.646-26.604 26.021-41.854-39.415 13.959-84.999 5.5-116.521-26.019z" fill="#FFFFFF"/>
	</symbol>
	<symbol id="icon-paypal" viewBox="0 0 512 512">
		<path d="M420.201 132.286c6.53 12.283 9.768 27.518 9.768 45.784 0 41.516-17.496 74.984-52.434 100.408-34.967 25.448-83.798 38.139-146.547 38.139H216.3c-11.052 0-22.08 8.681-24.571 19.263l-17.639 75.19c-2.453 10.63-13.51 19.311-24.543 19.311h-32.121l-2.874 12.283c-2.496 10.654 4.503 19.335 15.536 19.335h51.481c11.042 0 22.099-8.681 24.543-19.311l17.649-75.19c2.491-10.583 13.519-19.263 24.571-19.263h14.688c62.748 0 111.579-12.686 146.537-38.139C444.505 284.667 462 251.2 462 209.684c0-18.262-3.248-33.496-9.768-45.784-6.501-12.202-15.953-22.176-28.275-29.784-1.322-.79-2.386-1.083-3.756-1.83zm-278.137 247.17l17.644-75.194c2.491-10.583 13.51-19.263 24.562-19.263h14.688c62.758 0 111.589-12.686 146.547-38.139 34.948-25.424 52.434-58.892 52.434-100.408 0-18.262-3.238-33.496-9.768-45.784-6.491-12.202-15.953-22.176-28.265-29.774-12.623-7.718-27.451-13.079-44.62-16.216-17.227-3.114-37.362-4.676-60.511-4.676H147.574c-11.071 0-22.099 8.628-24.61 19.263L50.505 379.446c-2.496 10.64 4.498 19.311 15.531 19.311h51.481c11.033 0 22.095-8.676 24.547-19.302zm42.038-179.981l15.469-65.843c2.506-10.602 13.558-19.273 24.552-19.273h16.854c19.642 0 34.526 3.296 44.51 9.878 9.974 6.52 14.98 16.552 14.98 30.167 0 20.595-7.785 36.491-23.235 47.643-15.469 11.134-36.979 16.767-64.77 16.767h-12.753c-11.052 0-18.042-8.719-15.608-19.34z"/>
	</symbol>
	<symbol id="icon-reload" viewBox="0 0 512 512">
		<path d="M373.223 142.573l-37.252 37.253c-20.225-20.224-48.162-32.731-79.021-32.731-61.719 0-111.752 50.056-111.752 111.776h43.412l-69.342 69.315L50 258.871h42.514c0-90.816 73.621-164.46 164.436-164.46 45.407 0 86.517 18.405 116.273 48.162zM462 253.129l-69.268-69.316-69.342 69.316h43.412c0 61.72-50.033 111.776-111.752 111.776-30.859 0-58.797-12.508-79.021-32.731l-37.252 37.253c29.758 29.757 70.867 48.162 116.273 48.162 90.814 0 164.436-73.644 164.436-164.459H462z"/>
	</symbol>
	<symbol id="icon-shield-empty" viewBox="0 0 512 512">
		<path d="M256 102.433c46.974 34.162 100.779 47.517 143.455 52.245C388.319 257.588 332.197 353.065 256 412.763c-76.083-59.608-132.305-155.036-143.455-258.085 42.676-4.728 96.481-18.084 143.455-52.245zM256 50c-51.418 51.417-125.166 67-185.5 67 0 147.334 83.666 278 185.5 345 101.834-67 185.5-197.666 185.5-345-60.332 0-134.082-15.583-185.5-67z"/>
	</symbol>
	<symbol id="icon-sword" viewBox="0 0 512 512">
		<path style="fill:#00ad03;" d="M246.877,335.156l-70.034-70.034l207.69-207.69c16.399-16.399,36.697-28.363,58.987-34.768
	l49.959-14.356c6.234-1.791,12.003,3.978,10.212,10.212l-14.356,49.959c-6.405,22.29-18.369,42.588-34.768,58.987L246.877,335.156z" />
		<path style="fill:#00ad03;" d="M454.566,127.466c16.399-16.399,28.363-36.697,34.768-58.987L503.69,18.52
	c0.839-2.921,0.007-5.728-1.744-7.715l-129.31,129.311l-160.4,160.4l34.64,34.64L454.566,127.466z"/>
		<rect x="74.202" y="352.078" transform="matrix(-0.7071 -0.7071 0.7071 -0.7071 -109.6216 769.4789)" style="fill:#00ad03;" width="60.703" height="110.729"/>
		<polygon style="fill:#00ad03;" points="122.237,346.838 122.237,346.838 150.337,374.938 72.04,453.236 43.939,425.136 
	43.939,425.136 86.863,468.059 165.161,389.762 "/>
		<path style="fill:#00ad03;" d="M176.838,405.185l-70.024-70.024c-2.914-2.914-2.914-7.638,0-10.552l22.132-22.132l80.576,80.576
	l-22.132,22.132C184.476,408.099,179.752,408.099,176.838,405.185z"/>
		<path style="fill:#00ad03;" d="M128.946,302.477l-11.799,11.799l49.152,49.152c8.62,8.62,8.62,22.597,0,31.218l0,0l10.54,10.54
	c2.914,2.914,7.638,2.914,10.552,0l22.132-22.132L128.946,302.477z"/>
		<path style="fill:#00ad03;" d="M223.027,400.167L111.833,288.972c-19.826-19.826-19.826-51.971,0-71.797l0,0
	c4.712-4.712,12.351-4.712,17.063,0l165.928,165.928c4.712,4.712,4.712,12.351,0,17.063l0,0
	C274.998,419.993,242.853,419.993,223.027,400.167z"/>
		<path style="fill:#00ad03;" d="M294.824,383.103l-32.522-32.522c4.711,4.712,4.711,12.351-0.001,17.063l0,0
	c-19.826,19.826-51.971,19.826-71.797,0l-39.336-39.336l71.859,71.859c19.826,19.826,51.971,19.826,71.797,0l0,0
	C299.536,395.455,299.536,387.815,294.824,383.103z"/>
		<path style="fill:#00ad03;" d="M34.035,489.803l-11.839-11.839c-18.981-18.981-18.981-49.756,0-68.737l0,0
	c2.645-2.645,6.934-2.645,9.58,0l70.997,70.997c2.645,2.645,2.645,6.934,0,9.58l0,0C83.791,508.784,53.016,508.784,34.035,489.803z" />
		<path style="fill:#00ad03;" d="M102.772,480.223l-9.581-9.581c-19.042,18.091-49.139,17.809-67.82-0.872l-11.839-11.839
	c-1.75-1.75-3.337-3.602-4.764-5.534c1.716,9.365,6.186,18.325,13.427,25.567l11.839,11.839c18.981,18.981,49.756,18.981,68.737,0
	l0,0C105.418,487.158,105.418,482.869,102.772,480.223z"/>
		<path d="M507.242,4.757c-4.175-4.176-10.295-5.755-15.969-4.126l-49.959,14.356c-23.53,6.761-45.117,19.486-62.429,36.797
	l-155.681,156.21c-3.12,3.119-3.12,8.177,0,11.296c3.119,3.119,8.177,3.119,11.296,0L390.18,63.08
	c15.403-15.403,34.61-26.724,55.545-32.739l49.959-14.356c0.1-0.03,0.15-0.044,0.262,0.068c0.111,0.111,0.097,0.162,0.068,0.262
	l-14.356,49.959c-6.015,20.935-17.336,40.142-32.739,55.545L246.877,323.861l-23.345-23.345l154.752-154.752
	c3.12-3.119,3.12-8.177,0-11.296c-3.119-3.119-8.177-3.119-11.296,0L212.237,289.22l-24.098-24.098l19.548-19.548
	c3.12-3.119,3.12-8.177,0-11.296c-3.119-3.119-8.177-3.119-11.296,0l-19.548,19.548l-42.299-42.299
	c-3.787-3.788-8.823-5.873-14.18-5.873c-5.356,0.001-10.392,2.086-14.179,5.874c-11.097,11.097-17.209,25.852-17.209,41.546
	s6.112,30.449,17.209,41.546l9.661,9.661l-14.862,14.862c-5.923,5.923-5.923,15.56,0,21.483l8.085,8.085l-63.256,63.256
	l-8.388-8.388c-5.754-5.755-15.119-5.755-20.876,0c-22.065,22.065-22.065,57.968,0,80.033l11.839,11.839
	C39.42,506.483,53.912,512,68.404,512s28.984-5.517,40.017-16.55c5.755-5.755,5.754-15.12-0.001-20.875l-8.388-8.389l26.929-26.929
	c3.12-3.119,3.12-8.177,0-11.296c-3.119-3.119-8.177-3.119-11.296,0L88.736,454.89l-31.628-31.628l63.256-63.256l31.628,31.628
	l-12.898,12.897c-3.12,3.119-3.12,8.176,0,11.296c3.119,3.12,8.177,3.12,11.296,0l12.898-12.898l8.085,8.085
	c2.961,2.961,6.852,4.442,10.742,4.442s7.78-1.481,10.741-4.442l14.862-14.862l9.661,9.661
	c11.097,11.097,25.852,17.209,41.546,17.209s30.449-6.112,41.546-17.209c7.819-7.818,7.819-20.54,0-28.359l-42.299-42.299
	l202.042-202.042c17.312-17.312,30.036-38.899,36.797-62.429l14.356-49.959C512.999,15.051,511.418,8.932,507.242,4.757z
	 M39.683,484.155l-11.839-11.839c-15.55-15.55-15.831-40.675-0.845-56.572l13.161,13.161c0.002,0.002,0.003,0.004,0.005,0.005
	l42.924,42.924c0.002,0.002,0.004,0.003,0.005,0.005L96.254,485C80.357,499.986,55.233,499.704,39.683,484.155z M182.114,399.165
	l-13.173-13.173c-0.002-0.002-0.003-0.004-0.005-0.006l-42.924-42.924c-0.002-0.002-0.004-0.003-0.005-0.005l-13.173-13.173
	l14.308-14.309l69.281,69.281L182.114,399.165z M290.371,391.635c0,1.089-0.424,2.113-1.195,2.884
	c-8.08,8.08-18.823,12.53-30.25,12.53s-22.17-4.45-30.25-12.53l-15.309-15.309l-80.577-80.577l-15.309-15.309
	c-8.08-8.08-12.53-18.823-12.53-30.25c0-11.427,4.45-22.17,12.53-30.251c0.77-0.77,1.795-1.194,2.883-1.194
	c1.089,0,2.114,0.424,2.884,1.194l47.947,47.947l70.034,70.034l47.947,47.947C289.946,389.521,290.371,390.546,290.371,391.635z"/>
	</symbol>
	<symbol id="icon-vip" viewBox="0 0 246.989 246.989">
		<path d="M246.038,83.955l-39.424-70.664c-1.325-2.374-3.831-3.846-6.55-3.846H46.93c-2.719,0-5.225,1.471-6.55,3.846L0.951,83.955
	c-1.497,2.683-1.206,6.008,0.734,8.391l116.002,142.432c0.037,0.046,0.08,0.085,0.118,0.13c0.12,0.141,0.244,0.278,0.375,0.41
	c0.015,0.015,0.028,0.033,0.043,0.048c0.034,0.033,0.069,0.064,0.104,0.096c0.012,0.012,0.025,0.021,0.037,0.033
	c0.133,0.125,0.27,0.245,0.412,0.361c0.065,0.053,0.131,0.106,0.198,0.157c0.145,0.11,0.295,0.213,0.448,0.313
	c0.072,0.047,0.143,0.094,0.216,0.139c0.129,0.077,0.263,0.148,0.397,0.219c0.055,0.028,0.108,0.059,0.164,0.086
	c0.051,0.025,0.101,0.05,0.152,0.074c0.149,0.069,0.303,0.128,0.459,0.188c0.097,0.038,0.192,0.079,0.291,0.113
	c0.019,0.006,0.035,0.015,0.054,0.021c0.007,0.002,0.014,0.003,0.021,0.005c0.066,0.022,0.137,0.034,0.205,0.054
	c0.253,0.075,0.51,0.136,0.77,0.184c0.108,0.02,0.215,0.04,0.324,0.055c0.309,0.043,0.622,0.07,0.938,0.074
	c0.029,0,0.058,0.007,0.088,0.007h0.001h0.001c0.03,0,0.059-0.007,0.088-0.007c0.317-0.004,0.63-0.031,0.939-0.074
	c0.108-0.015,0.214-0.035,0.321-0.054c0.263-0.048,0.522-0.11,0.776-0.186c0.065-0.019,0.133-0.031,0.198-0.052
	c0.008-0.003,0.016-0.003,0.023-0.006c0.02-0.006,0.036-0.015,0.055-0.022c0.098-0.033,0.191-0.074,0.287-0.11
	c0.156-0.06,0.312-0.12,0.462-0.189c0.052-0.024,0.104-0.05,0.155-0.075c0.053-0.026,0.104-0.056,0.155-0.082
	c0.136-0.071,0.271-0.143,0.401-0.221c0.074-0.045,0.146-0.093,0.22-0.141c0.152-0.099,0.302-0.202,0.444-0.311
	c0.068-0.051,0.134-0.104,0.199-0.158c0.144-0.116,0.281-0.237,0.414-0.362c0.013-0.013,0.027-0.023,0.04-0.035
	c0.03-0.029,0.062-0.056,0.092-0.086c0.017-0.017,0.032-0.036,0.049-0.053c0.134-0.135,0.261-0.276,0.383-0.42
	c0.036-0.042,0.076-0.079,0.111-0.122L245.304,92.346C247.244,89.963,247.535,86.638,246.038,83.955z M138.3,24.446l21.242,55.664
	H87.457l21.249-55.664H138.3z M160.065,95.11l-36.563,110.967L86.935,95.11H160.065z M71.142,95.11l32.524,98.699L23.282,95.11
	H71.142z M175.858,95.11h47.851l-80.37,98.696L175.858,95.11z M226.715,80.11h-51.118l-21.242-55.664h41.306L226.715,80.11z
	M51.333,24.446h41.317L71.402,80.11H20.274L51.333,24.446z"/>
	</symbol>
	<symbol id="icon-broadcaster" viewBox="0 -87 432 432">
		<path d="m278.90625 0h-248.90625c-16.5625.0195312-29.9804688 13.4375-30 30v197.421875c.0195312 16.5625 13.4375 29.980469 30 30h248.90625c16.558594-.019531 29.980469-13.4375 30-30v-197.421875c-.019531-16.5625-13.441406-29.9804688-30-30zm0 0"/>
		<path d="m328.90625 169.800781 103.09375 56.285157v-194.105469l-103.09375 56.285156zm0 0"/>
	</symbol>
	<symbol id="icon-shield-full" viewBox="0 0 512 512">
		<path d="M256 102.433c46.974 34.162 100.779 47.517 143.455 52.245C388.319 257.588 332.197 353.065 256 412.763c-76.084-59.608-132.305-155.036-143.455-258.085 42.676-4.728 96.481-18.084 143.455-52.245M256 50c-51.418 51.417-125.167 67-185.5 67 0 147.334 83.666 278 185.5 345 101.834-67 185.5-197.666 185.5-345-60.333 0-134.083-15.583-185.5-67zm109.302 129.834C330.69 173.191 292.231 160.835 256 138.52c-36.23 22.315-74.689 34.671-109.302 41.314 14.978 76.026 55.894 144.754 109.302 193.6 53.412-48.849 94.324-117.578 109.302-193.6z"/>
	</symbol>
	<symbol id="icon-speech-bubble" viewBox="0 0 512 512">
		<path d="M462 64.991H50v293.682h64.501v88.336l131.978-88.336H462z"/>
	</symbol>
	<symbol id="icon-star" viewBox="0 0 512 512">
		<path d="M256 60.082l62.979 129.92 143.022 19.748L357.9 309.793l25.415 142.125L256 383.828l-127.315 68.09L154.1 309.793 49.999 209.75l143.022-19.748z"/>
	</symbol>
	<symbol id="icon-tgr" viewBox="0 0 512 512">
		<path d="M33.05,434.35v76.83H479V434.35Zm342.79,56.49H136.16V454.7H375.84Z"/>
		<path d="M169.7,260.33C42.28,225.22,41.28,95.73,41.29,94.42l0-8H150.2v16.13H57.81C60,129.82,74.94,217.49,174,244.78Z"/>
		<path d="M342.3,260.33C469.72,225.22,470.72,95.73,470.71,94.42l0-8H361.8v16.13h92.39c-2.23,27.3-17.13,115-116.17,142.26Z"/>
		<path d="M281.18,335.78h-49s-9.91,64.58-71.33,78.09v19.52H352.51V413.87C291.09,400.36,281.18,335.78,281.18,335.78Z"/>
		<polygon points="256.7 172.87 218.05 193.19 225.43 150.15 194.16 119.66 237.38 113.38 256.7 74.22 276.03 113.38 319.25 119.66 287.98 150.15 295.36 193.19 256.7 172.87"/>
		<rect x="124.38" y="3.2" width="264.65" height="29.1"/>
		<path d="M353.06,40.25,308.6,84.72A76.73,76.73,0,1,1,200.18,193.14L160.9,232.41l5.25,32.81a91.7,91.7,0,0,0,90.56,77.21h0a91.7,91.7,0,0,0,90.55-77.21l36-225Z"/>
		<path d="M130.14,40.25l36,225a91.7,91.7,0,0,0,90.56,77.21h0a91.7,91.7,0,0,0,90.55-77.21l36-225ZM256.71,218a76.75,76.75,0,1,1,76.74-76.75A76.75,76.75,0,0,1,256.71,218Z"/>
	</symbol>
	<symbol id="icon-time" viewBox="0 0 24 24">
		<path d="M11.99 2C6.47 2 2 6.48 2 12s4.47 10 9.99 10C17.52 22 22 17.52 22 12S17.52 2 11.99 2zM12 20c-4.42 0-8-3.58-8-8s3.58-8 8-8 8 3.58 8 8-3.58 8-8 8z"/>
		<path d="M0 0h24v24H0z" fill="none"/>
		<path d="M12.5 7H11v6l5.25 3.15.75-1.23-4.5-2.67z"/>
	</symbol>
	<symbol id="icon-trash" viewBox="0 0 512 512">
		<path d="M424.562 78.022v40.032H87.438V78.022h94.938c15.464 0 28-12.546 28-28.022h91.25c0 15.477 12.536 28.022 28 28.022h94.936zm-18.228 70.057V462H105.666V148.079h300.668zm-209.001 62.383c0-8.291-6.716-15.012-15-15.012s-15 6.721-15 15.012v190.153c0 8.291 6.716 15.012 15 15.012s15-6.721 15-15.012V210.462zm73.667 0c0-8.291-6.716-15.012-15-15.012s-15 6.721-15 15.012v190.153c0 8.291 6.716 15.012 15 15.012s15-6.721 15-15.012V210.462zm73.667 0c0-8.291-6.716-15.012-15-15.012s-15 6.721-15 15.012v190.153c0 8.291 6.716 15.012 15 15.012s15-6.721 15-15.012V210.462z" fill="#3a3a3c"/>
	</symbol>
	<symbol id="icon-trophy-list" viewBox="0 0 512 512">
		<path d="M313.276 415.726v23.703H166.931v-23.703c37.9 0 47.896-31.799 49.562-53.023h47.222c1.664 21.224 10.568 53.023 49.561 53.023zM124.44 220.253c5.08 12.363 10.586 23.555 16.195 33.797C77.625 227.599 40.048 164.558 34 97.948h64.554c.38 7.559.913 14.986 1.641 22.262H60.226c6.69 31.363 23.299 73.135 64.214 100.043zm68.241-66.549l32.855-4.538L240 119.326l14.468 29.84 32.852 4.538-23.914 22.977 5.837 32.646L240 193.684l-29.246 15.643 5.841-32.646-23.914-22.977zm71.497 186.736c11.666-56.344 94.745-99.578 94.745-267.869h-237.64c0 168.291 83.082 211.525 94.745 267.869h48.15zM395.06 132c-1.454 10.609-3.276 20.592-5.404 30H460v-30zM377.81 202a302.672 302.672 0 0 1-13.054 30H460v-30zM341.436 272c-7.097 10.87-13.89 20.687-19.762 30H460v-30z"/>
	</symbol>
	<symbol id="icon-trophy" viewBox="0 0 512 512">
		<path d="M280.178 340.44c11.666-56.344 94.745-99.578 94.745-267.869h-237.64c0 168.291 83.082 211.525 94.745 267.869h48.15zm-71.497-186.736l32.855-4.538L256 119.326l14.468 29.84 32.852 4.538-23.914 22.977 5.837 32.646L256 193.684l-29.246 15.643 5.841-32.646-23.914-22.977zm-68.241 66.549c5.08 12.363 10.586 23.555 16.195 33.797C93.625 227.599 56.048 164.558 50 97.948h64.554c.38 7.559.913 14.986 1.641 22.262H76.226c6.69 31.363 23.299 73.135 64.214 100.043zm188.836 195.473v23.703H182.931v-23.703c37.9 0 47.896-31.799 49.562-53.023h47.222c1.664 21.224 10.568 53.023 49.561 53.023zM462 97.948c-6.039 66.514-43.518 129.469-106.366 155.988 5.614-10.262 11.125-21.479 16.206-33.869 40.712-26.914 57.259-68.566 63.935-99.857h-39.762c.727-7.275 1.261-14.703 1.64-22.262H462z"/>
	</symbol>
	<symbol id="icon-twitch" viewBox="0 0 512 512">
		<path d="M82.116 51.815l-27.461 73.233v292.897H155.3v54.952h54.948l54.893-54.952h82.363l109.84-109.801V51.815H82.115zm36.586 36.594h302.042v201.39l-64.083 64.087H256l-54.879 54.875v-54.875h-82.419V88.409zm100.686 183.107H256V161.681h-36.612v109.835zm100.667 0h36.605V161.681h-36.605v109.835z"/>
	</symbol>
	<symbol id="icon-twitter" viewBox="0 0 512 512">
		<path d="M462 128.223c-15.158 6.724-31.449 11.269-48.547 13.31 17.449-10.461 30.854-27.025 37.164-46.764a169.218 169.218 0 0 1-53.676 20.511c-15.418-16.428-37.386-26.691-61.698-26.691-54.56 0-94.668 50.916-82.337 103.787-70.25-3.524-132.534-37.177-174.223-88.314-22.142 37.983-11.485 87.691 26.158 112.85a84.148 84.148 0 0 1-38.285-10.574c-.917 39.162 27.146 75.781 67.795 83.949a84.688 84.688 0 0 1-38.17 1.447c10.754 33.58 41.972 58.018 78.96 58.699C139.604 378.282 94.846 390.721 50 385.436c37.406 23.982 81.837 37.977 129.571 37.977 156.932 0 245.595-132.551 240.251-251.435 16.517-11.917 30.846-26.804 42.178-43.755z"/>
	</symbol>
	<symbol id="icon-user" viewBox="0 0 512 512">
		<path d="M407.448 360.474c-59.036-13.617-113.989-25.541-87.375-75.717 81.01-152.729 21.473-234.406-64.072-234.406-87.231 0-145.303 84.812-64.072 234.406 27.412 50.482-29.608 62.393-87.375 75.717-59.012 13.609-54.473 44.723-54.473 101.176h411.838c0-56.454 4.539-87.567-54.471-101.176z"/>
	</symbol>
</svg>